<svg width="92" height="14" viewBox="0 0 92 14" fill="none" xmlns="http://www.w3.org/2000/svg">
<path d="M7 1L1 7L7 13" stroke="#C987E8" stroke-width="2" stroke-linecap="round" stroke-linejoin="round"/>
<path d="M11.572 12.12C11.3 12.12 11.048 12.104 10.816 12.072C10.592 12.048 10.48 12.036 10.48 12.036V10.992C10.48 10.992 10.528 10.996 10.624 11.004C10.728 11.012 10.852 11.024 10.996 11.04C11.148 11.048 11.292 11.052 11.428 11.052C12.044 11.052 12.532 10.9 12.892 10.596C13.26 10.292 13.444 9.768 13.444 9.024V3.12H14.62V9.024C14.62 9.968 14.36 10.72 13.84 11.28C13.328 11.84 12.572 12.12 11.572 12.12ZM18.4941 12.12C17.8621 12.12 17.3581 11.924 16.9821 11.532C16.6061 11.14 16.4181 10.596 16.4181 9.9V5.64H17.5581V9.84C17.5581 10.256 17.6701 10.576 17.8941 10.8C18.1261 11.024 18.4301 11.136 18.8061 11.136C19.1901 11.136 19.4981 11.036 19.7301 10.836C19.9621 10.636 20.1301 10.38 20.2341 10.068C20.3381 9.756 20.3901 9.436 20.3901 9.108V5.64H21.5301V12H20.3901V11.088H20.3181C20.2701 11.184 20.1781 11.316 20.0421 11.484C19.9061 11.644 19.7141 11.792 19.4661 11.928C19.2181 12.056 18.8941 12.12 18.4941 12.12ZM25.975 5.52C26.375 5.52 26.711 5.584 26.983 5.712C27.255 5.84 27.475 5.992 27.643 6.168C27.811 6.336 27.939 6.496 28.027 6.648H28.099V5.64H29.239V12H28.099V10.992H28.027C27.939 11.144 27.811 11.308 27.643 11.484C27.475 11.66 27.255 11.812 26.983 11.94C26.711 12.06 26.375 12.12 25.975 12.12C25.495 12.12 25.075 12.028 24.715 11.844C24.355 11.652 24.055 11.4 23.815 11.088C23.575 10.768 23.395 10.412 23.275 10.02C23.155 9.628 23.095 9.228 23.095 8.82C23.095 8.412 23.155 8.012 23.275 7.62C23.395 7.228 23.575 6.876 23.815 6.564C24.055 6.244 24.355 5.992 24.715 5.808C25.075 5.616 25.495 5.52 25.975 5.52ZM26.167 6.492C25.743 6.492 25.387 6.608 25.099 6.84C24.811 7.064 24.595 7.352 24.451 7.704C24.315 8.056 24.247 8.428 24.247 8.82C24.247 9.204 24.315 9.576 24.451 9.936C24.595 10.288 24.811 10.58 25.099 10.812C25.387 11.036 25.743 11.148 26.167 11.148C26.591 11.148 26.943 11.036 27.223 10.812C27.511 10.58 27.723 10.288 27.859 9.936C28.003 9.576 28.075 9.204 28.075 8.82C28.075 8.428 28.003 8.056 27.859 7.704C27.723 7.352 27.511 7.064 27.223 6.84C26.943 6.608 26.591 6.492 26.167 6.492ZM30.9142 12V5.64H32.0542V6.564H32.1262C32.1822 6.468 32.2742 6.336 32.4022 6.168C32.5382 6 32.7302 5.852 32.9782 5.724C33.2262 5.588 33.5382 5.52 33.9142 5.52C34.3782 5.52 34.7742 5.628 35.1022 5.844C35.4302 6.052 35.6782 6.336 35.8462 6.696C36.0222 7.056 36.1102 7.46 36.1102 7.908V12H34.9702V7.98C34.9702 7.556 34.8502 7.204 34.6102 6.924C34.3782 6.644 34.0382 6.504 33.5902 6.504C33.2302 6.504 32.9382 6.596 32.7142 6.78C32.4902 6.956 32.3222 7.192 32.2102 7.488C32.1062 7.776 32.0542 8.084 32.0542 8.412V12H30.9142ZM43.2108 12L40.0788 3.12H41.3268L43.9548 10.656L46.5828 3.12H47.8308L44.6868 12H43.2108ZM51.3843 12.12C50.8643 12.12 50.4123 12.028 50.0283 11.844C49.6523 11.652 49.3403 11.396 49.0923 11.076C48.8523 10.756 48.6723 10.404 48.5523 10.02C48.4323 9.628 48.3723 9.228 48.3723 8.82C48.3723 8.42 48.4283 8.024 48.5403 7.632C48.6603 7.24 48.8403 6.884 49.0803 6.564C49.3283 6.244 49.6363 5.992 50.0043 5.808C50.3803 5.616 50.8243 5.52 51.3363 5.52C51.8803 5.52 52.3603 5.644 52.7763 5.892C53.1923 6.14 53.5203 6.508 53.7603 6.996C54.0003 7.484 54.1203 8.096 54.1203 8.832V9.168H49.5243C49.5483 9.528 49.6323 9.86 49.7763 10.164C49.9283 10.46 50.1403 10.7 50.4123 10.884C50.6843 11.06 51.0083 11.148 51.3843 11.148C51.7123 11.148 51.9763 11.096 52.1763 10.992C52.3843 10.88 52.5483 10.752 52.6683 10.608C52.7883 10.464 52.8683 10.34 52.9083 10.236C52.9563 10.124 52.9803 10.068 52.9803 10.068H54.0483C54.0483 10.068 54.0283 10.14 53.9883 10.284C53.9483 10.42 53.8763 10.588 53.7723 10.788C53.6683 10.988 53.5163 11.192 53.3163 11.4C53.1163 11.6 52.8603 11.772 52.5483 11.916C52.2363 12.052 51.8483 12.12 51.3843 12.12ZM49.5363 8.28H53.0043C52.9883 7.864 52.9003 7.528 52.7403 7.272C52.5803 7.008 52.3763 6.812 52.1283 6.684C51.8803 6.556 51.6163 6.492 51.3363 6.492C50.8323 6.492 50.4203 6.656 50.1003 6.984C49.7803 7.304 49.5923 7.736 49.5363 8.28ZM55.6759 12V5.64H56.8159V6.432H56.8639C56.9999 6.192 57.1999 5.98 57.4639 5.796C57.7279 5.612 58.0999 5.52 58.5799 5.52C58.7159 5.52 58.8399 5.528 58.9519 5.544C59.0639 5.552 59.1199 5.556 59.1199 5.556V6.648C59.1199 6.648 59.0559 6.644 58.9279 6.636C58.8079 6.62 58.6799 6.612 58.5439 6.612C57.9919 6.612 57.5639 6.772 57.2599 7.092C56.9639 7.404 56.8159 7.916 56.8159 8.628V12H55.6759ZM62.9067 12.12C62.2267 12.12 61.6547 11.964 61.1907 11.652C60.7267 11.332 60.3747 10.92 60.1347 10.416C59.8947 9.912 59.7747 9.38 59.7747 8.82C59.7747 8.252 59.8947 7.72 60.1347 7.224C60.3747 6.72 60.7267 6.312 61.1907 6C61.6547 5.68 62.2267 5.52 62.9067 5.52C63.5867 5.52 64.1587 5.68 64.6227 6C65.0867 6.312 65.4387 6.72 65.6787 7.224C65.9187 7.72 66.0387 8.252 66.0387 8.82C66.0387 9.38 65.9187 9.912 65.6787 10.416C65.4387 10.92 65.0867 11.332 64.6227 11.652C64.1587 11.964 63.5867 12.12 62.9067 12.12ZM62.9067 11.124C63.3387 11.124 63.6987 11.016 63.9867 10.8C64.2827 10.576 64.5027 10.288 64.6467 9.936C64.7987 9.584 64.8747 9.212 64.8747 8.82C64.8747 8.42 64.7987 8.048 64.6467 7.704C64.5027 7.352 64.2827 7.068 63.9867 6.852C63.6987 6.628 63.3387 6.516 62.9067 6.516C62.4827 6.516 62.1227 6.628 61.8267 6.852C61.5307 7.068 61.3067 7.352 61.1547 7.704C61.0107 8.048 60.9387 8.42 60.9387 8.82C60.9387 9.212 61.0107 9.584 61.1547 9.936C61.3067 10.288 61.5307 10.576 61.8267 10.8C62.1227 11.016 62.4827 11.124 62.9067 11.124ZM67.5939 12V5.64H68.7339V6.564H68.8059C68.8619 6.468 68.9539 6.336 69.0819 6.168C69.2179 6 69.4099 5.852 69.6579 5.724C69.9059 5.588 70.2179 5.52 70.5939 5.52C71.0579 5.52 71.4539 5.628 71.7819 5.844C72.1099 6.052 72.3579 6.336 72.5259 6.696C72.7019 7.056 72.7899 7.46 72.7899 7.908V12H71.6499V7.98C71.6499 7.556 71.5299 7.204 71.2899 6.924C71.0579 6.644 70.7179 6.504 70.2699 6.504C69.9099 6.504 69.6179 6.596 69.3939 6.78C69.1699 6.956 69.0019 7.192 68.8899 7.488C68.7859 7.776 68.7339 8.084 68.7339 8.412V12H67.5939Z" fill="#383280"/>
<path d="M82 1L78 13" stroke="#C987E8" stroke-width="2" stroke-linecap="round" stroke-linejoin="round"/>
<path d="M85 13L91 7L85 1" stroke="#C987E8" stroke-width="2" stroke-linecap="round" stroke-linejoin="round"/>
</svg>
